<svg xmlns="http://www.w3.org/2000/svg" xmlns:xlink="http://www.w3.org/1999/xlink" version="1.1" x="0px" y="0px" viewBox="0 0 100 100" style="enable-background:new 0 0 100 100;" xml:space="preserve"><style type="text/css">
	.st0{fill:#231F20;}
</style><rect x="12" y="39.2" class="st0" width="8.7" height="8.7"/><rect x="22" y="39.2" class="st0" width="8.7" height="8.7"/><rect x="32" y="39.2" class="st0" width="8.7" height="8.7"/><rect x="42" y="39.2" class="st0" width="8.7" height="8.7"/><rect x="22" y="29.3" class="st0" width="8.7" height="8.7"/><rect x="32" y="29.3" class="st0" width="8.7" height="8.7"/><rect x="42" y="29.3" class="st0" width="8.7" height="8.7"/><rect x="42" y="19.4" class="st0" width="8.7" height="8.7"/><rect x="52.1" y="39.2" class="st0" width="8.7" height="8.7"/><path class="st0" d="M85.6,40.7c0.2-6.9-6.5-11-6.5-11c-6.3,8.2,0,16.6,0,16.6c-3.9,3.4-8.9,3.4-8.9,3.4h-68  c0,0-4.7,31,33.5,31S84,48.9,84,48.9C96.6,49.5,98,42,98,42C92.7,38.4,85.6,40.7,85.6,40.7z M11.3,72c-1.2-0.8-2.8-3.1-2.8-3.1  c0.1,0,7.9,1,17.3-2l1.1,2.9C24.5,71.5,12.5,72.9,11.3,72z M31.2,67.5c-1.4,0-2.5-1.1-2.5-2.5c0-1.4,1.1-2.5,2.5-2.5  c1.4,0,2.5,1.1,2.5,2.5C33.6,66.4,32.5,67.5,31.2,67.5z"/></svg>